<?xml version="1.0" encoding="utf-8"?>
<svg viewBox="82.4236 141.3755 256.5503 256.5503" width="256.5503" height="256.5503"
  xmlns="http://www.w3.org/2000/svg">
  <g id="Layer_1" data-name="Layer 1"
    transform="matrix(1.0262010097503662, 0, 0, 1.0262010097503662, 82.423583984375, 141.37554931640625)"
    style="">
    <path class="cls-2"
      d="M0,125C0,55.96,55.96,0,125,0s125,55.96,125,125-55.96,125-125,125c-69.03,0-125-55.97-125-125Z"
      style="fill: rgb(165, 125, 180); stroke-width: 0px;" />
    <path class="cls-1"
      d="M201.96,88.14c-1.26-2.45-7.4-8.07-17.77-2.97-10.36,5.1-5.35,16.3-5.35,16.3,3.86,7.92,6.04,16.81,6.04,26.22,0,33.07-26.81,59.87-59.87,59.87s-59.87-26.81-59.87-59.87c0-30.95,23.48-56.41,53.59-59.54v15.52s-.04.93.92,1.51c.96.59,1.92,0,1.92,0l49.67-29.27s1.11-.59,1.11-1.73c0-.94-1.11-1.61-1.11-1.61l-49.5-29.1s-1.13-.81-2.13-.42c-1,.39-.88,1.75-.88,1.75v16.62c-44.84,3.22-80.23,40.59-80.23,86.27s38.73,86.51,86.51,86.51,86.52-38.73,86.52-86.51c0-14.26-3.45-27.7-9.56-39.56Z"
      style="fill: rgb(247, 247, 247); stroke-width: 0px;" />
  </g>
</svg>