<svg xmlns="http://www.w3.org/2000/svg" xmlns:xlink="http://www.w3.org/1999/xlink" version="1.1"
	width="256" height="256" viewBox="0 0 256 256" xml:space="preserve">

<defs>
</defs>
<g style="stroke: none; stroke-width: 0; stroke-dasharray: none; stroke-linecap: butt; stroke-linejoin: miter; stroke-miterlimit: 10; fill: none; fill-rule: nonzero; opacity: 1;" transform="translate(1.4065934065934016 1.4065934065934016) scale(2.81 2.81)" >
	<circle cx="45" cy="45" r="45"
			style="stroke: none; stroke-width: 1; stroke-dasharray: none; stroke-linecap: butt; stroke-linejoin: miter; stroke-miterlimit: 10; fill: #a57db4; fill-rule: nonzero; opacity: 1;"
			transform="  matrix(1 0 0 1 0 0) " />
	<path d="M 64.541 73.014 H 19.342 c -1.288 0 -2.342 -1.054 -2.342 -2.342 V 25.473 c 0 -1.288 1.054 -2.342 2.342 -2.342 h 45.199 c 1.288 0 2.342 1.054 2.342 2.342 v 45.199 C 66.882 71.96 65.829 73.014 64.541 73.014 z" style="stroke: none; stroke-width: 1; stroke-dasharray: none; stroke-linecap: butt; stroke-linejoin: miter; stroke-miterlimit: 10; fill: #a57db4; fill-rule: nonzero; opacity: 1;" transform=" matrix(1 0 0 1 0 0) " stroke-linecap="round" />
	<path d="M 67.658 69.702 H 22.459 c -1.288 0 -2.342 -1.054 -2.342 -2.342 V 22.162 c 0 -1.288 1.054 -2.342 2.342 -2.342 h 45.199 c 1.288 0 2.342 1.054 2.342 2.342 v 45.199 C 70 68.649 68.946 69.702 67.658 69.702 z" style="stroke: none; stroke-width: 1; stroke-dasharray: none; stroke-linecap: butt; stroke-linejoin: miter; stroke-miterlimit: 10; fill: rgb(255,255,255); fill-rule: nonzero; opacity: 1;" transform=" matrix(1 0 0 1 0 0) " stroke-linecap="round" />
</g>
</svg>